<?xml version="1.0" encoding="UTF-8"?>
<!-- Generator: Adobe Illustrator 22.0.1, SVG Export Plug-In . SVG Version: 6.00 Build 0)  -->
<svg version="1.1" id="Ebene_1" xmlns="http://www.w3.org/2000/svg" xmlns:xlink="http://www.w3.org/1999/xlink" x="0px" y="0px" viewBox="0 0 176.5 157.7" style="enable-background:new 0 0 176.5 157.7;" xml:space="preserve">
<style type="text/css">
	.st0{fill:#F59E26;}
</style>
<g>
	<path class="st0" d="M116.5,75.6l0.3-3.8c7.2-1.1,13.2-6.6,14.5-14.1c0.5-2.7,0.3-5.3-0.4-7.8l2.1-10.7c4.5-0.2,8.5-3.8,9.1-8.9   c0.6-4.7-2.2-9.1-6.5-10.5c-2.1-0.7-4.3-0.5-6.1,0.3c-0.8-3.6-3.6-6.5-7.3-7.2c-3.7-0.7-7.3,0.9-9.4,4c-1.5-1.4-3.4-2.4-5.6-2.6   c-4.5-0.4-8.7,2.7-9.9,7.3c-1.3,4.9,1,9.7,5.1,11.6l-2.2,11.2c-1.5,2.1-2.6,4.5-3,7.2c-1.3,7.5,2.4,14.8,8.8,18.2l-1,3.7   c-5.6-1.7-9.6-4-13-6.7c0,0,0,0,0,0c0,0,0,0,0,0c-1.3-1-2.5-2.1-3.6-3.2c-1.1,1.1-2.3,2.2-3.6,3.2c0,0,0,0,0,0c0,0,0,0,0,0   c-3.4,2.7-7.4,5.1-13,6.7l-1-3.7c6.4-3.5,10.1-10.7,8.8-18.2c-1.5-8.4-8.8-14.4-17.1-14.4c-1.4,0-2.8,0.2-4.2,0.5   c-8.2,2-13.8,9.8-13.1,18.2c0.7,8.4,7,14.7,14.7,15.8l0.3,3.8c-0.9,0.1-1.8,0.1-2.6,0.1c-9.7,0-16-3.4-23-6.9   c6,12,14,20.7,26.8,21.3l0.9,11.9h17.4l-4-14.5c5.9-2.4,10-6.4,12.7-11.3c2.8,5,6.9,8.9,12.7,11.3l-4,14.5h17.4l0.9-11.9   c12.8-0.6,20.7-9.2,26.8-21.3C134.5,72.5,127.8,76.2,116.5,75.6"/>
	<path class="st0" d="M143.5,101.9h6.5c5.1-9.6,7.9-20.6,7.9-32.2c0-14.4-4.4-27.7-11.9-38.8c-0.3,2.5-1.2,4.7-2.6,6.6   c5.5,9.5,8.7,20.5,8.7,32.2C152.2,81.4,149,92.4,143.5,101.9"/>
	<path class="st0" d="M33,101.9c-6.3-10.8-9.6-23.5-8.6-37.1C26.8,32.8,53,7.3,85.1,5.7c10-0.5,19.6,1.4,28.2,5   c2.1-1.4,4.6-2.1,7.2-2.1c0.5,0,1,0,1.5,0.1c-11.1-6.2-24-9.4-37.6-8.6C48.7,2.1,20,31.2,18.6,66.8c-0.5,12.7,2.4,24.6,7.9,35.1H33   z"/>
</g>
<g>
	<path class="st1" d="M0.4,138c-0.2-0.2-0.4-0.6-0.4-1.1V114c0-0.5,0.1-0.9,0.4-1.1c0.2-0.2,0.6-0.4,1.1-0.4h7.9   c3.8,0,6.8,1.1,8.8,3.3c2,2.2,3.1,5.4,3.1,9.6c0,4.2-1,7.4-3.1,9.6s-5,3.3-8.8,3.3H1.5C1,138.4,0.6,138.3,0.4,138z M9.4,133.5   c2,0,3.5-0.7,4.5-2.1c1-1.4,1.5-3.4,1.5-6c0-2.6-0.5-4.6-1.5-6c-1-1.4-2.5-2.1-4.5-2.1H5.7v16.2H9.4z"/>
	<path class="st1" d="M25.1,115.2v-2.6c0-0.9,0.9-1.4,2.7-1.4c1.8,0,2.7,0.5,2.7,1.4v2.6c0,0.9-0.9,1.4-2.7,1.4   C26,116.6,25.1,116.2,25.1,115.2z M25.1,137.3v-17.1c0-0.8,0.7-1.2,2.2-1.2h1c1.5,0,2.2,0.4,2.2,1.2v17.1c0,0.8-0.7,1.2-2.2,1.2h-1   C25.8,138.5,25.1,138.1,25.1,137.3z"/>
	<path class="st1" d="M35,137.3v-11.7c0-1.1,0-1.9-0.1-2.5c-0.1-0.6-0.1-1.2-0.2-1.9c-0.1-0.3-0.1-0.6-0.1-0.8   c0-0.4,0.5-0.7,1.5-0.9c1-0.2,1.9-0.3,2.6-0.3c0.4,0,0.8,0.2,0.9,0.5c0.2,0.3,0.3,0.7,0.4,1.1c0.1,0.4,0.1,0.7,0.2,0.8   c0.6-0.8,1.4-1.5,2.4-2c1-0.5,2-0.8,3.1-0.8c1.9,0,3.2,0.5,4.1,1.5c0.9,1,1.3,2.5,1.3,4.5v12.5c0,0.8-0.7,1.2-2.2,1.2h-1   c-1.5,0-2.2-0.4-2.2-1.2v-11.7c0-0.8-0.2-1.3-0.5-1.7c-0.3-0.4-0.9-0.6-1.7-0.6c-0.7,0-1.3,0.2-1.8,0.6c-0.5,0.4-0.9,0.9-1.2,1.5   v11.9c0,0.8-0.7,1.2-2.2,1.2h-1C35.7,138.5,35,138.1,35,137.3z"/>
	<path class="st1" d="M55.6,137.3v-11.7c0-1.1,0-1.9-0.1-2.5c-0.1-0.6-0.1-1.2-0.2-1.9c-0.1-0.3-0.1-0.6-0.1-0.8   c0-0.4,0.5-0.7,1.5-0.9c1-0.2,1.9-0.3,2.6-0.3c0.4,0,0.8,0.2,0.9,0.5c0.2,0.3,0.3,0.7,0.4,1.1c0.1,0.4,0.1,0.7,0.2,0.8   c0.6-0.8,1.4-1.5,2.4-2c1-0.5,2-0.8,3.1-0.8c1.9,0,3.2,0.5,4.1,1.5c0.9,1,1.3,2.5,1.3,4.5v12.5c0,0.8-0.7,1.2-2.2,1.2h-1   c-1.5,0-2.2-0.4-2.2-1.2v-11.7c0-0.8-0.2-1.3-0.5-1.7c-0.3-0.4-0.9-0.6-1.7-0.6c-0.7,0-1.3,0.2-1.8,0.6c-0.5,0.4-0.9,0.9-1.2,1.5   v11.9c0,0.8-0.7,1.2-2.2,1.2h-1C56.4,138.5,55.6,138.1,55.6,137.3z"/>
	<path class="st1" d="M77.9,136.1c-1.6-1.7-2.4-4.1-2.4-7.2c0-3.5,0.8-6,2.4-7.7c1.6-1.6,3.8-2.4,6.6-2.4c2.7,0,4.8,0.9,6,2.7   c1.3,1.8,1.9,4.1,1.9,6.9c0,0.3-0.3,0.7-0.8,1.3c-0.5,0.6-0.9,0.9-1.1,0.9h-9.4c0.1,1.4,0.5,2.4,1.3,3c0.7,0.6,1.7,0.9,3,0.9   c0.7,0,1.3-0.1,1.9-0.2c0.6-0.2,1.2-0.4,1.8-0.6c0.4-0.2,0.7-0.3,0.8-0.3c0.2,0,0.5,0.2,0.8,0.5c0.3,0.4,0.6,0.8,0.8,1.2   c0.2,0.5,0.3,0.8,0.3,1.1c0,0.6-0.4,1.1-1.1,1.5c-0.8,0.4-1.7,0.7-2.7,0.9s-2,0.3-2.8,0.3C81.9,138.7,79.5,137.8,77.9,136.1z    M87.1,126.8c0-1.1-0.2-2-0.7-2.7c-0.4-0.7-1.1-1-2-1c-1.8,0-2.9,1.2-3.3,3.7H87.1z"/>
	<path class="st1" d="M96.2,137.3v-11.7c0-1.1,0-1.9-0.1-2.5c-0.1-0.6-0.1-1.2-0.2-1.9c-0.1-0.3-0.1-0.6-0.1-0.8   c0-0.4,0.5-0.7,1.5-0.9c1-0.2,1.9-0.3,2.6-0.3c0.4,0,0.8,0.2,0.9,0.5c0.2,0.3,0.3,0.7,0.4,1.1c0.1,0.4,0.1,0.7,0.2,0.8   c0.5-0.9,1-1.5,1.6-2.1c0.6-0.5,1.4-0.8,2.4-0.8c0.8,0,1.3,0.2,1.6,0.6c0.3,0.4,0.5,0.9,0.5,1.4c0,0.5-0.1,1.2-0.3,1.9   c-0.2,0.8-0.5,1.2-0.8,1.2c-0.1,0-0.4,0-0.8-0.1c-0.4-0.1-0.7-0.1-1-0.1c-0.7,0-1.3,0.2-1.8,0.6c-0.5,0.4-0.9,0.8-1.2,1.3v11.9   c0,0.8-0.7,1.2-2.2,1.2h-1C96.9,138.5,96.2,138.1,96.2,137.3z"/>
	<path class="st1" d="M111.3,136.3c-1.5-1.6-2.3-4.1-2.3-7.4c0-3.4,0.8-5.9,2.3-7.6c1.5-1.7,3.9-2.5,7.2-2.5c1.5,0,2.9,0.2,4.2,0.7   c1.3,0.5,1.9,1.1,1.9,1.9c0,0.4-0.3,0.9-0.8,1.7c-0.5,0.8-0.9,1.1-1.2,1.1c-0.1,0-0.3-0.1-0.7-0.3c-0.5-0.2-1-0.4-1.5-0.6   c-0.5-0.1-1.1-0.2-1.8-0.2c-1.5,0-2.5,0.5-3.2,1.4c-0.7,0.9-1,2.3-1,4.3c0,1.9,0.3,3.3,0.9,4.3c0.6,0.9,1.6,1.4,3,1.4   c0.6,0,1.2-0.1,1.7-0.2c0.5-0.1,0.9-0.3,1.3-0.4c0.3-0.1,0.5-0.2,0.6-0.3c0.4-0.1,0.6-0.2,0.7-0.2c0.2,0,0.5,0.2,0.8,0.5   c0.3,0.4,0.6,0.8,0.8,1.2c0.2,0.5,0.3,0.8,0.3,1.1c0,0.6-0.4,1.1-1.2,1.5c-0.8,0.4-1.8,0.7-2.8,0.8c-1,0.2-1.8,0.2-2.4,0.2   C115.1,138.7,112.8,137.9,111.3,136.3z"/>
	<path class="st1" d="M127.7,132.7v-21c0-0.8,0.7-1.2,2.2-1.2h1c1.5,0,2.2,0.4,2.2,1.2v21.1c0,0.6,0.1,1,0.3,1.2   c0.2,0.2,0.5,0.4,1,0.4c0.1,0,0.3,0,0.5-0.1c0.2,0,0.4-0.1,0.5-0.1c0.2,0,0.4,0.2,0.6,0.6c0.2,0.4,0.3,0.8,0.4,1.2   c0.1,0.4,0.1,0.7,0.1,0.9c0,1.2-1.2,1.8-3.6,1.8C129.5,138.7,127.7,136.7,127.7,132.7z"/>
	<path class="st1" d="M139.9,137.2c-0.9-1-1.3-2.5-1.3-4.5v-12.5c0-0.8,0.7-1.2,2.2-1.2h1c1.5,0,2.2,0.4,2.2,1.2v11.7   c0,0.8,0.2,1.3,0.5,1.7c0.3,0.4,0.9,0.6,1.7,0.6c0.7,0,1.3-0.2,1.8-0.6c0.5-0.4,0.9-0.9,1.2-1.5v-11.9c0-0.8,0.7-1.2,2.2-1.2h1   c1.5,0,2.2,0.4,2.2,1.2v11.7c0,1.1,0,2,0.1,2.6c0.1,0.6,0.1,1.2,0.2,2c0.1,0.3,0.1,0.6,0.1,0.8c0,0.4-0.5,0.7-1.5,0.9   c-1,0.2-1.9,0.3-2.6,0.3c-0.4,0-0.8-0.2-0.9-0.5c-0.2-0.4-0.3-0.7-0.4-1.2c-0.1-0.4-0.1-0.7-0.2-0.9c-0.6,0.8-1.4,1.5-2.3,2   c-1,0.5-2,0.8-3.2,0.8C142.1,138.7,140.7,138.2,139.9,137.2z"/>
	<path class="st1" d="M166.6,137.9c-0.9-0.5-1.5-1.2-2-2c-0.2,0.8-0.3,1.3-0.4,1.6c-0.1,0.4-0.3,0.6-0.7,0.8   c-0.3,0.1-0.8,0.2-1.5,0.2h-0.4c-1.5,0-2.2-0.4-2.2-1.2v-25.6c0-0.8,0.7-1.2,2.2-1.2h1c1.5,0,2.2,0.4,2.2,1.2v8.2   c1.1-0.8,2.3-1.1,3.8-1.1c2.5,0,4.4,0.9,5.8,2.7c1.4,1.8,2.1,4.2,2.1,7.3c0,2.1-0.3,3.9-0.9,5.4c-0.6,1.5-1.4,2.6-2.5,3.4   c-1,0.8-2.2,1.2-3.6,1.2C168.4,138.7,167.4,138.4,166.6,137.9z M170.9,128.7c0-3.7-1.1-5.6-3.4-5.6c-0.9,0-1.8,0.2-2.6,0.7v8.3   c0.8,1.5,1.9,2.2,3,2.2C169.9,134.2,170.9,132.4,170.9,128.7z"/>
</g>
</svg>
