<?xml version="1.0" encoding="UTF-8"?>
<svg version="1.1" id="Ebene_1" xmlns="http://www.w3.org/2000/svg" xmlns:xlink="http://www.w3.org/1999/xlink" x="0px" y="0px" viewBox="18 0 140 101.9" style="enable-background:new 0 0 176.5 157.7;" xml:space="preserve">
<style type="text/css">
	.st0{fill:#F59E26;}
</style>
<g>
	<path class="st0" d="M116.5,75.6l0.3-3.8c7.2-1.1,13.2-6.6,14.5-14.1c0.5-2.7,0.3-5.3-0.4-7.8l2.1-10.7c4.5-0.2,8.5-3.8,9.1-8.9   c0.6-4.7-2.2-9.1-6.5-10.5c-2.1-0.7-4.3-0.5-6.1,0.3c-0.8-3.6-3.6-6.5-7.3-7.2c-3.7-0.7-7.3,0.9-9.4,4c-1.5-1.4-3.4-2.4-5.6-2.6   c-4.5-0.4-8.7,2.7-9.9,7.3c-1.3,4.9,1,9.7,5.1,11.6l-2.2,11.2c-1.5,2.1-2.6,4.5-3,7.2c-1.3,7.5,2.4,14.8,8.8,18.2l-1,3.7   c-5.6-1.7-9.6-4-13-6.7c0,0,0,0,0,0c0,0,0,0,0,0c-1.3-1-2.5-2.1-3.6-3.2c-1.1,1.1-2.3,2.2-3.6,3.2c0,0,0,0,0,0c0,0,0,0,0,0   c-3.4,2.7-7.4,5.1-13,6.7l-1-3.7c6.4-3.5,10.1-10.7,8.8-18.2c-1.5-8.4-8.8-14.4-17.1-14.4c-1.4,0-2.8,0.2-4.2,0.5   c-8.2,2-13.8,9.8-13.1,18.2c0.7,8.4,7,14.7,14.7,15.8l0.3,3.8c-0.9,0.1-1.8,0.1-2.6,0.1c-9.7,0-16-3.4-23-6.9   c6,12,14,20.7,26.8,21.3l0.9,11.9h17.4l-4-14.5c5.9-2.4,10-6.4,12.7-11.3c2.8,5,6.9,8.9,12.7,11.3l-4,14.5h17.4l0.9-11.9   c12.8-0.6,20.7-9.2,26.8-21.3C134.5,72.5,127.8,76.2,116.5,75.6"/>
	<path class="st0" d="M143.5,101.9h6.5c5.1-9.6,7.9-20.6,7.9-32.2c0-14.4-4.4-27.7-11.9-38.8c-0.3,2.5-1.2,4.7-2.6,6.6   c5.5,9.5,8.7,20.5,8.7,32.2C152.2,81.4,149,92.4,143.5,101.9"/>
	<path class="st0" d="M33,101.9c-6.3-10.8-9.6-23.5-8.6-37.1C26.8,32.8,53,7.3,85.1,5.7c10-0.5,19.6,1.4,28.2,5   c2.1-1.4,4.6-2.1,7.2-2.1c0.5,0,1,0,1.5,0.1c-11.1-6.2-24-9.4-37.6-8.6C48.7,2.1,20,31.2,18.6,66.8c-0.5,12.7,2.4,24.6,7.9,35.1H33   z"/>
</g>
</svg>
