<?xml version="1.0" encoding="utf-8"?>
<!-- Generator: Adobe Illustrator 22.0.1, SVG Export Plug-In . SVG Version: 6.00 Build 0)  -->
<svg version="1.1" id="Ebene_1" xmlns="http://www.w3.org/2000/svg" xmlns:xlink="http://www.w3.org/1999/xlink" x="0px" y="0px"
	 viewBox="0 0 176.5 157.7" style="enable-background:new 0 0 176.5 157.7;" xml:space="preserve">
<style type="text/css">
	.st0{fill:#F59E26;}
	.st1{fill:#020203;}
</style>
<g>
	<g>
		<path class="st0" d="M116.5,75.6l0.3-3.8c7.2-1.1,13.2-6.6,14.5-14.1c0.5-2.7,0.3-5.3-0.4-7.8l2.1-10.7c4.5-0.2,8.5-3.8,9.1-8.9
			c0.6-4.7-2.2-9.1-6.5-10.5c-2.1-0.7-4.3-0.5-6.1,0.3c-0.8-3.6-3.6-6.5-7.3-7.2c-3.7-0.7-7.3,0.9-9.4,4c-1.5-1.4-3.4-2.4-5.6-2.6
			c-4.5-0.4-8.7,2.7-9.9,7.3c-1.3,4.9,1,9.7,5.1,11.6l-2.2,11.2c-1.5,2.1-2.6,4.5-3,7.2c-1.3,7.5,2.4,14.8,8.8,18.2l-1,3.7
			c-5.6-1.7-9.6-4-13-6.7c0,0,0,0,0,0c0,0,0,0,0,0c-1.3-1-2.5-2.1-3.6-3.2c-1.1,1.1-2.3,2.2-3.6,3.2c0,0,0,0,0,0c0,0,0,0,0,0
			c-3.4,2.7-7.4,5.1-13,6.7l-1-3.7c6.4-3.5,10.1-10.7,8.8-18.2c-1.5-8.4-8.8-14.4-17.1-14.4c-1.4,0-2.8,0.2-4.2,0.5
			c-8.2,2-13.8,9.8-13.1,18.2c0.7,8.4,7,14.7,14.7,15.8l0.3,3.8c-0.9,0.1-1.8,0.1-2.6,0.1c-9.7,0-16-3.4-23-6.9
			c6,12,14,20.7,26.8,21.3l0.9,11.9h17.4l-4-14.5c5.9-2.4,10-6.4,12.7-11.3c2.8,5,6.9,8.9,12.7,11.3l-4,14.5h17.4l0.9-11.9
			c12.8-0.6,20.7-9.2,26.8-21.3C134.5,72.5,127.8,76.2,116.5,75.6"/>
		<path class="st0" d="M143.5,101.9h6.5c5.1-9.6,7.9-20.6,7.9-32.2c0-14.4-4.4-27.7-11.9-38.8c-0.3,2.5-1.2,4.7-2.6,6.6
			c5.5,9.5,8.7,20.5,8.7,32.2C152.2,81.4,149,92.4,143.5,101.9"/>
		<path class="st0" d="M33,101.9c-6.3-10.8-9.6-23.5-8.6-37.1C26.8,32.8,53,7.3,85.1,5.7c10-0.5,19.6,1.4,28.2,5
			c2.1-1.4,4.6-2.1,7.2-2.1c0.5,0,1,0,1.5,0.1c-11.1-6.2-24-9.4-37.6-8.6C48.7,2.1,20,31.2,18.6,66.8c-0.5,12.7,2.4,24.6,7.9,35.1
			H33z"/>
	</g>
	<g>
		<path class="st1" d="M48.9,155.8c0.6,0,1.1-0.5,1.1-1.1c0-0.6-0.5-1.1-1.1-1.1c-0.6,0-1.1,0.5-1.1,1.1
			C47.8,155.3,48.3,155.8,48.9,155.8"/>
		<path class="st1" d="M88.8,155.8c0.6,0,1.1-0.5,1.1-1.1c0-0.6-0.5-1.1-1.1-1.1c-0.6,0-1.1,0.5-1.1,1.1
			C87.7,155.3,88.1,155.8,88.8,155.8"/>
		<g>
			<path class="st1" d="M58.9,157.3l-2.6-3.6l2.3-3.4c0.1-0.1,0.1-0.2,0.1-0.2c0,0,0-0.1-0.1-0.1c-0.1,0-0.2,0-0.3,0h-0.2
				c-0.3,0-0.4,0.1-0.5,0.2l-2.3,3.5h0v-3.4c0-0.2-0.1-0.2-0.4-0.2h-0.1c-0.3,0-0.4,0.1-0.4,0.2v7.2c0,0.2,0.1,0.2,0.4,0.2h0.1
				c0.3,0,0.4-0.1,0.4-0.2v-3.5h0l2.4,3.6c0,0.1,0.1,0.1,0.2,0.1c0.1,0,0.2,0,0.3,0h0.2c0.2,0,0.3,0,0.3,0c0.1,0,0.1-0.1,0.1-0.1
				C59,157.4,58.9,157.4,58.9,157.3"/>
			<path class="st1" d="M62,157.7c0.8,0,1.4-0.2,1.8-0.6c0.4-0.4,0.6-0.9,0.6-1.6v-5.3c0-0.2-0.1-0.2-0.4-0.2h-0.2
				c-0.3,0-0.4,0.1-0.4,0.2v5.3c0,0.4-0.1,0.7-0.4,1c-0.3,0.3-0.6,0.4-1,0.4c-0.4,0-0.8-0.1-1.1-0.4c-0.3-0.2-0.4-0.6-0.4-1v-5.3
				c0-0.2-0.1-0.2-0.4-0.2H60c-0.3,0-0.4,0.1-0.4,0.2v5.3c0,0.7,0.2,1.2,0.6,1.6C60.6,157.5,61.2,157.7,62,157.7"/>
			<path class="st1" d="M66.1,157.6h3c0.1,0,0.1,0,0.2-0.1c0-0.1,0-0.1,0-0.3v-0.2c0-0.1,0-0.2,0-0.3c0-0.1-0.1-0.1-0.2-0.1h-2.3
				v-6.6c0-0.2-0.1-0.2-0.4-0.2h-0.2c-0.3,0-0.4,0.1-0.4,0.2v7.1c0,0.1,0,0.2,0.1,0.3C65.9,157.6,66,157.6,66.1,157.6"/>
			<path class="st1" d="M70.9,157.6h0.2c0.3,0,0.4-0.1,0.4-0.2v-6.6H73c0.1,0,0.1,0,0.2-0.1c0-0.1,0-0.1,0-0.3v-0.2
				c0-0.1,0-0.2,0-0.3c0-0.1-0.1-0.1-0.2-0.1h-4.1c-0.1,0-0.2,0.1-0.2,0.3v0.2c0,0.2,0.1,0.3,0.2,0.3h1.6v6.6
				C70.5,157.5,70.6,157.6,70.9,157.6"/>
			<path class="st1" d="M76.4,157.7c0.8,0,1.4-0.2,1.8-0.6c0.4-0.4,0.6-0.9,0.6-1.6v-5.3c0-0.2-0.1-0.2-0.4-0.2h-0.2
				c-0.3,0-0.4,0.1-0.4,0.2v5.3c0,0.4-0.1,0.7-0.4,1c-0.3,0.3-0.6,0.4-1,0.4c-0.4,0-0.8-0.1-1.1-0.4c-0.3-0.2-0.4-0.6-0.4-1v-5.3
				c0-0.2-0.1-0.2-0.4-0.2h-0.2c-0.3,0-0.4,0.1-0.4,0.2v5.3c0,0.7,0.2,1.2,0.6,1.6C75,157.5,75.6,157.7,76.4,157.7"/>
			<path class="st1" d="M83.2,152.1c0,0.4-0.1,0.7-0.3,0.9c-0.2,0.3-0.4,0.4-0.7,0.4h-1.1v-2.6h1c0.3,0,0.6,0.1,0.7,0.3
				C83.2,151.3,83.2,151.6,83.2,152.1 M83.3,153.8L83.3,153.8c0.3-0.2,0.6-0.4,0.7-0.7c0.2-0.3,0.3-0.7,0.3-1.1
				c0-0.7-0.2-1.2-0.5-1.5c-0.3-0.3-0.9-0.5-1.6-0.5h-1.6c-0.1,0-0.2,0-0.2,0.1c0,0.1-0.1,0.1-0.1,0.3v7.1c0,0.2,0.1,0.2,0.4,0.2
				h0.2c0.3,0,0.4-0.1,0.4-0.2v-3.1h0.7c0.3,0,0.6,0.1,0.7,0.2c0.2,0.1,0.3,0.4,0.4,0.8l0.7,2.1c0,0.1,0.1,0.1,0.1,0.1
				c0.1,0,0.2,0,0.3,0h0.2c0.3,0,0.4-0.1,0.4-0.2c0,0,0-0.1,0-0.2l-0.7-2.2c-0.1-0.4-0.3-0.7-0.4-0.9
				C83.5,154,83.4,153.9,83.3,153.8"/>
		</g>
		<g>
			<path class="st1" d="M94.7,157.6h0.2c0.3,0,0.4-0.1,0.4-0.2v-7.2c0-0.2-0.1-0.2-0.4-0.2h-0.2c-0.3,0-0.4,0.1-0.4,0.2v7.2
				C94.3,157.5,94.4,157.6,94.7,157.6"/>
			<path class="st1" d="M97.2,157.6h0.1c0.3,0,0.4-0.1,0.4-0.2v-4.9c0-0.2,0-0.5-0.1-0.7l0.1,0c0.1,0.3,0.2,0.5,0.3,0.7l2.6,5
				c0.1,0.1,0.2,0.2,0.4,0.2h0.2c0.3,0,0.4-0.1,0.4-0.2v-7.2c0-0.2-0.1-0.2-0.4-0.2h-0.1c-0.3,0-0.4,0.1-0.4,0.2v4.8
				c0,0.2,0,0.5,0.1,0.7l-0.1,0c-0.1-0.3-0.2-0.5-0.3-0.7l-2.5-4.9c0-0.1-0.1-0.1-0.2-0.2c-0.1,0-0.2,0-0.3,0h-0.3
				c-0.3,0-0.4,0.1-0.4,0.2v7.2C96.8,157.5,96.9,157.6,97.2,157.6"/>
			<path class="st1" d="M104.6,157.6h0.2c0.3,0,0.4-0.1,0.4-0.2v-6.6h1.6c0.1,0,0.1,0,0.2-0.1s0-0.1,0-0.3v-0.2c0-0.1,0-0.2,0-0.3
				s-0.1-0.1-0.2-0.1h-4.1c-0.1,0-0.2,0.1-0.2,0.3v0.2c0,0.2,0.1,0.3,0.2,0.3h1.6v6.6C104.2,157.5,104.3,157.6,104.6,157.6"/>
			<path class="st1" d="M108.1,157.6h3.1c0.1,0,0.1,0,0.2-0.1c0-0.1,0-0.1,0-0.3v-0.2c0-0.1,0-0.2,0-0.3c0-0.1-0.1-0.1-0.2-0.1h-2.5
				v-2.7h2.2c0.1,0,0.2-0.1,0.2-0.3v-0.2c0-0.2-0.1-0.3-0.2-0.3h-2.2v-2.5h2.5c0.1,0,0.2-0.1,0.2-0.3v-0.2c0-0.2-0.1-0.3-0.2-0.3
				h-3.1c-0.1,0-0.2,0-0.2,0.1s-0.1,0.1-0.1,0.3v7c0,0.1,0,0.2,0.1,0.3S108,157.6,108.1,157.6"/>
			<path class="st1" d="M115.6,152.1c0,0.4-0.1,0.7-0.3,0.9c-0.2,0.3-0.4,0.4-0.7,0.4h-1.1v-2.6h1c0.3,0,0.6,0.1,0.7,0.3
				C115.5,151.3,115.6,151.6,115.6,152.1 M115.6,153.8L115.6,153.8c0.3-0.2,0.6-0.4,0.7-0.7c0.2-0.3,0.3-0.7,0.3-1.1
				c0-0.7-0.2-1.2-0.5-1.5c-0.3-0.3-0.9-0.5-1.6-0.5h-1.6c-0.1,0-0.2,0-0.2,0.1c0,0.1-0.1,0.1-0.1,0.3v7.1c0,0.2,0.1,0.2,0.4,0.2
				h0.2c0.3,0,0.4-0.1,0.4-0.2v-3.1h0.7c0.3,0,0.6,0.1,0.7,0.2c0.2,0.1,0.3,0.4,0.4,0.8l0.7,2.1c0,0.1,0.1,0.1,0.1,0.1s0.2,0,0.3,0
				h0.2c0.3,0,0.4-0.1,0.4-0.2c0,0,0-0.1,0-0.2l-0.7-2.2c-0.1-0.4-0.3-0.7-0.4-0.9C115.8,154,115.7,153.9,115.6,153.8"/>
			<path class="st1" d="M118.3,157.6h0.1c0.3,0,0.4-0.1,0.4-0.2v-4.9c0-0.2,0-0.5-0.1-0.7l0.1,0c0.1,0.3,0.2,0.5,0.3,0.7l2.6,5
				c0.1,0.1,0.2,0.2,0.4,0.2h0.2c0.3,0,0.4-0.1,0.4-0.2v-7.2c0-0.2-0.1-0.2-0.4-0.2h-0.1c-0.3,0-0.4,0.1-0.4,0.2v4.8
				c0,0.2,0,0.5,0.1,0.7l-0.1,0c-0.1-0.3-0.2-0.5-0.3-0.7l-2.5-4.9c0-0.1-0.1-0.1-0.2-0.2c-0.1,0-0.2,0-0.3,0h-0.3
				c-0.3,0-0.4,0.1-0.4,0.2v7.2C117.9,157.5,118,157.6,118.3,157.6"/>
			<path class="st1" d="M127,154.8h-1.9l0.8-3l0.1-0.4c0-0.1,0-0.2,0-0.3h0.1c0.1,0.3,0.1,0.6,0.1,0.7L127,154.8z M128.7,157.4
				c0,0,0-0.1,0-0.1l-2-7.1c0-0.1-0.2-0.2-0.4-0.2h-0.4c-0.2,0-0.4,0.1-0.4,0.2l-2,7.1c0,0.1,0,0.1,0,0.1c0,0.1,0.1,0.2,0.4,0.2h0.2
				c0.2,0,0.4-0.1,0.4-0.2l0.5-1.8h2.3l0.5,1.8c0,0.1,0.2,0.2,0.4,0.2h0.2c0.1,0,0.2,0,0.3,0C128.6,157.5,128.7,157.5,128.7,157.4"
				/>
			<path class="st1" d="M130.7,157.6h0.2c0.3,0,0.4-0.1,0.4-0.2v-6.6h1.6c0.1,0,0.1,0,0.2-0.1s0-0.1,0-0.3v-0.2c0-0.1,0-0.2,0-0.3
				s-0.1-0.1-0.2-0.1h-4.1c-0.1,0-0.2,0.1-0.2,0.3v0.2c0,0.2,0.1,0.3,0.2,0.3h1.6v6.6C130.3,157.5,130.4,157.6,130.7,157.6"/>
			<path class="st1" d="M134.4,157.6h0.2c0.3,0,0.4-0.1,0.4-0.2v-7.2c0-0.2-0.1-0.2-0.4-0.2h-0.2c-0.3,0-0.4,0.1-0.4,0.2v7.2
				C134,157.5,134.1,157.6,134.4,157.6"/>
			<path class="st1" d="M140.7,153.8c0,2.1-0.6,3.1-1.7,3.1c-1.2,0-1.7-1-1.7-3.1c0-1,0.1-1.8,0.4-2.3c0.3-0.5,0.7-0.7,1.3-0.7
				C140.1,150.7,140.7,151.7,140.7,153.8 M141.7,153.8c0-2.6-0.9-3.9-2.7-3.9c-1.8,0-2.7,1.3-2.7,3.9c0,1.3,0.2,2.3,0.7,2.9
				c0.5,0.6,1.1,1,2,1c0.9,0,1.6-0.3,2-1C141.5,156,141.7,155.1,141.7,153.8"/>
			<path class="st1" d="M143.2,157.6h0.1c0.3,0,0.4-0.1,0.4-0.2v-4.9c0-0.2,0-0.5-0.1-0.7l0.1,0c0.1,0.3,0.2,0.5,0.3,0.7l2.6,5
				c0.1,0.1,0.2,0.2,0.4,0.2h0.2c0.3,0,0.4-0.1,0.4-0.2v-7.2c0-0.2-0.1-0.2-0.4-0.2h-0.1c-0.3,0-0.4,0.1-0.4,0.2v4.8
				c0,0.2,0,0.5,0.1,0.7l-0.1,0c-0.1-0.3-0.2-0.5-0.3-0.7l-2.5-4.9c0-0.1-0.1-0.1-0.2-0.2c-0.1,0-0.2,0-0.3,0h-0.3
				c-0.3,0-0.4,0.1-0.4,0.2v7.2C142.8,157.5,142.9,157.6,143.2,157.6"/>
			<path class="st1" d="M151.9,154.8h-1.9l0.8-3l0.1-0.4c0-0.1,0-0.2,0-0.3h0.1c0.1,0.3,0.1,0.6,0.1,0.7L151.9,154.8z M153.6,157.4
				c0,0,0-0.1,0-0.1l-2-7.1c0-0.1-0.2-0.2-0.4-0.2h-0.4c-0.2,0-0.4,0.1-0.4,0.2l-2,7.1c0,0.1,0,0.1,0,0.1c0,0.1,0.1,0.2,0.4,0.2h0.2
				c0.2,0,0.4-0.1,0.4-0.2l0.5-1.8h2.3l0.5,1.8c0,0.1,0.2,0.2,0.4,0.2h0.2c0.1,0,0.2,0,0.3,0C153.6,157.5,153.6,157.5,153.6,157.4"
				/>
			<path class="st1" d="M154.7,157.6h3c0.1,0,0.1,0,0.2-0.1s0-0.1,0-0.3v-0.2c0-0.1,0-0.2,0-0.3s-0.1-0.1-0.2-0.1h-2.3v-6.6
				c0-0.2-0.1-0.2-0.4-0.2h-0.2c-0.3,0-0.4,0.1-0.4,0.2v7.1c0,0.1,0,0.2,0.1,0.3C154.5,157.6,154.6,157.6,154.7,157.6"/>
		</g>
		<g>
			<path class="st1" d="M25.6,149c0.3,0,0.4-0.1,0.4-0.2v-0.6c0-0.2-0.1-0.2-0.4-0.2c-0.3,0-0.4,0.1-0.4,0.2v0.6
				C25.1,149,25.3,149,25.6,149"/>
			<path class="st1" d="M26.9,149c0.3,0,0.4-0.1,0.4-0.2v-0.6c0-0.2-0.1-0.2-0.4-0.2c-0.3,0-0.4,0.1-0.4,0.2v0.6
				C26.5,149,26.7,149,26.9,149"/>
			<path class="st1" d="M23.1,157.3l-2.6-3.6l2.3-3.4c0.1-0.1,0.1-0.2,0.1-0.2c0,0,0-0.1-0.1-0.1c-0.1,0-0.2,0-0.3,0h-0.2
				c-0.3,0-0.4,0.1-0.5,0.2l-2.3,3.5h0v-3.4c0-0.2-0.1-0.2-0.4-0.2H19c-0.3,0-0.4,0.1-0.4,0.2v7.2c0,0.2,0.1,0.2,0.4,0.2h0.1
				c0.3,0,0.4-0.1,0.4-0.2v-3.5h0l2.4,3.6c0,0.1,0.1,0.1,0.2,0.1s0.2,0,0.3,0h0.2c0.2,0,0.3,0,0.3,0c0.1,0,0.1-0.1,0.1-0.1
				C23.2,157.4,23.2,157.4,23.1,157.3"/>
			<path class="st1" d="M26.2,157.7c0.8,0,1.4-0.2,1.8-0.6c0.4-0.4,0.6-0.9,0.6-1.6v-5.3c0-0.2-0.1-0.2-0.4-0.2h-0.2
				c-0.3,0-0.4,0.1-0.4,0.2v5.3c0,0.4-0.1,0.7-0.4,1c-0.3,0.3-0.6,0.4-1,0.4c-0.4,0-0.8-0.1-1.1-0.4s-0.4-0.6-0.4-1v-5.3
				c0-0.2-0.1-0.2-0.4-0.2h-0.2c-0.3,0-0.4,0.1-0.4,0.2v5.3c0,0.7,0.2,1.2,0.6,1.6C24.9,157.5,25.5,157.7,26.2,157.7"/>
			<path class="st1" d="M32.6,157.7c0.2,0,0.5,0,0.7-0.1c0.2,0,0.4-0.1,0.5-0.2c0.1-0.1,0.2-0.1,0.2-0.2c0-0.1,0.1-0.1,0.1-0.2
				c0-0.1,0-0.2-0.1-0.4c-0.1-0.1-0.1-0.2-0.2-0.2c0,0-0.1,0-0.1,0c-0.3,0.2-0.6,0.3-1,0.3c-0.6,0-1.1-0.2-1.4-0.7
				c-0.3-0.5-0.4-1.3-0.4-2.3s0.1-1.8,0.4-2.3c0.3-0.5,0.8-0.7,1.4-0.7c0.3,0,0.6,0.1,0.9,0.2c0.1,0.1,0.2,0,0.3-0.2
				c0.1-0.2,0.1-0.3,0.1-0.4c0-0.1,0-0.1,0-0.2c0,0-0.1-0.1-0.1-0.1c-0.1-0.1-0.3-0.1-0.5-0.2c-0.2,0-0.4-0.1-0.6-0.1
				c-1,0-1.7,0.3-2.1,1c-0.5,0.6-0.7,1.6-0.7,2.9c0,1.3,0.2,2.3,0.7,2.9C30.9,157.4,31.6,157.7,32.6,157.7"/>
			<path class="st1" d="M35.3,157.6h0.2c0.3,0,0.4-0.1,0.4-0.2v-3.3h2.9v3.3c0,0.2,0.1,0.2,0.4,0.2h0.2c0.3,0,0.4-0.1,0.4-0.2v-7.2
				c0-0.2-0.1-0.2-0.4-0.2h-0.2c-0.3,0-0.4,0.1-0.4,0.2v3.1h-2.9v-3.1c0-0.2-0.1-0.2-0.4-0.2h-0.2c-0.3,0-0.4,0.1-0.4,0.2v7.2
				C34.8,157.5,35,157.6,35.3,157.6"/>
			<path class="st1" d="M41.5,157.6h3.1c0.1,0,0.1,0,0.2-0.1c0-0.1,0-0.1,0-0.3v-0.2c0-0.1,0-0.2,0-0.3c0-0.1-0.1-0.1-0.2-0.1h-2.5
				v-2.7h2.2c0.1,0,0.2-0.1,0.2-0.3v-0.2c0-0.2-0.1-0.3-0.2-0.3h-2.2v-2.5h2.5c0.1,0,0.2-0.1,0.2-0.3v-0.2c0-0.2-0.1-0.3-0.2-0.3
				h-3.1c-0.1,0-0.2,0-0.2,0.1s-0.1,0.1-0.1,0.3v7c0,0.1,0,0.2,0.1,0.3S41.4,157.6,41.5,157.6"/>
		</g>
	</g>
	<g>
		<path d="M0.4,138c-0.2-0.2-0.4-0.6-0.4-1.1V114c0-0.5,0.1-0.9,0.4-1.1c0.2-0.2,0.6-0.4,1.1-0.4h7.9c3.8,0,6.8,1.1,8.8,3.3
			c2,2.2,3.1,5.4,3.1,9.6c0,4.2-1,7.4-3.1,9.6s-5,3.3-8.8,3.3H1.5C1,138.4,0.6,138.3,0.4,138z M9.4,133.5c2,0,3.5-0.7,4.5-2.1
			c1-1.4,1.5-3.4,1.5-6c0-2.6-0.5-4.6-1.5-6c-1-1.4-2.5-2.1-4.5-2.1H5.7v16.2H9.4z"/>
		<path d="M25.1,115.2v-2.6c0-0.9,0.9-1.4,2.7-1.4c1.8,0,2.7,0.5,2.7,1.4v2.6c0,0.9-0.9,1.4-2.7,1.4C26,116.6,25.1,116.2,25.1,115.2
			z M25.1,137.3v-17.1c0-0.8,0.7-1.2,2.2-1.2h1c1.5,0,2.2,0.4,2.2,1.2v17.1c0,0.8-0.7,1.2-2.2,1.2h-1
			C25.8,138.5,25.1,138.1,25.1,137.3z"/>
		<path d="M35,137.3v-11.7c0-1.1,0-1.9-0.1-2.5c-0.1-0.6-0.1-1.2-0.2-1.9c-0.1-0.3-0.1-0.6-0.1-0.8c0-0.4,0.5-0.7,1.5-0.9
			c1-0.2,1.9-0.3,2.6-0.3c0.4,0,0.8,0.2,0.9,0.5c0.2,0.3,0.3,0.7,0.4,1.1c0.1,0.4,0.1,0.7,0.2,0.8c0.6-0.8,1.4-1.5,2.4-2
			c1-0.5,2-0.8,3.1-0.8c1.9,0,3.2,0.5,4.1,1.5c0.9,1,1.3,2.5,1.3,4.5v12.5c0,0.8-0.7,1.2-2.2,1.2h-1c-1.5,0-2.2-0.4-2.2-1.2v-11.7
			c0-0.8-0.2-1.3-0.5-1.7c-0.3-0.4-0.9-0.6-1.7-0.6c-0.7,0-1.3,0.2-1.8,0.6c-0.5,0.4-0.9,0.9-1.2,1.5v11.9c0,0.8-0.7,1.2-2.2,1.2h-1
			C35.7,138.5,35,138.1,35,137.3z"/>
		<path d="M55.6,137.3v-11.7c0-1.1,0-1.9-0.1-2.5c-0.1-0.6-0.1-1.2-0.2-1.9c-0.1-0.3-0.1-0.6-0.1-0.8c0-0.4,0.5-0.7,1.5-0.9
			c1-0.2,1.9-0.3,2.6-0.3c0.4,0,0.8,0.2,0.9,0.5c0.2,0.3,0.3,0.7,0.4,1.1c0.1,0.4,0.1,0.7,0.2,0.8c0.6-0.8,1.4-1.5,2.4-2
			c1-0.5,2-0.8,3.1-0.8c1.9,0,3.2,0.5,4.1,1.5c0.9,1,1.3,2.5,1.3,4.5v12.5c0,0.8-0.7,1.2-2.2,1.2h-1c-1.5,0-2.2-0.4-2.2-1.2v-11.7
			c0-0.8-0.2-1.3-0.5-1.7c-0.3-0.4-0.9-0.6-1.7-0.6c-0.7,0-1.3,0.2-1.8,0.6c-0.5,0.4-0.9,0.9-1.2,1.5v11.9c0,0.8-0.7,1.2-2.2,1.2h-1
			C56.4,138.5,55.6,138.1,55.6,137.3z"/>
		<path d="M77.9,136.1c-1.6-1.7-2.4-4.1-2.4-7.2c0-3.5,0.8-6,2.4-7.7c1.6-1.6,3.8-2.4,6.6-2.4c2.7,0,4.8,0.9,6,2.7
			c1.3,1.8,1.9,4.1,1.9,6.9c0,0.3-0.3,0.7-0.8,1.3c-0.5,0.6-0.9,0.9-1.1,0.9h-9.4c0.1,1.4,0.5,2.4,1.3,3c0.7,0.6,1.7,0.9,3,0.9
			c0.7,0,1.3-0.1,1.9-0.2c0.6-0.2,1.2-0.4,1.8-0.6c0.4-0.2,0.7-0.3,0.8-0.3c0.2,0,0.5,0.2,0.8,0.5c0.3,0.4,0.6,0.8,0.8,1.2
			c0.2,0.5,0.3,0.8,0.3,1.1c0,0.6-0.4,1.1-1.1,1.5c-0.8,0.4-1.7,0.7-2.7,0.9s-2,0.3-2.8,0.3C81.9,138.7,79.5,137.8,77.9,136.1z
			 M87.1,126.8c0-1.1-0.2-2-0.7-2.7c-0.4-0.7-1.1-1-2-1c-1.8,0-2.9,1.2-3.3,3.7H87.1z"/>
		<path d="M96.2,137.3v-11.7c0-1.1,0-1.9-0.1-2.5c-0.1-0.6-0.1-1.2-0.2-1.9c-0.1-0.3-0.1-0.6-0.1-0.8c0-0.4,0.5-0.7,1.5-0.9
			c1-0.2,1.9-0.3,2.6-0.3c0.4,0,0.8,0.2,0.9,0.5c0.2,0.3,0.3,0.7,0.4,1.1c0.1,0.4,0.1,0.7,0.2,0.8c0.5-0.9,1-1.5,1.6-2.1
			c0.6-0.5,1.4-0.8,2.4-0.8c0.8,0,1.3,0.2,1.6,0.6c0.3,0.4,0.5,0.9,0.5,1.4c0,0.5-0.1,1.2-0.3,1.9c-0.2,0.8-0.5,1.2-0.8,1.2
			c-0.1,0-0.4,0-0.8-0.1c-0.4-0.1-0.7-0.1-1-0.1c-0.7,0-1.3,0.2-1.8,0.6c-0.5,0.4-0.9,0.8-1.2,1.3v11.9c0,0.8-0.7,1.2-2.2,1.2h-1
			C96.9,138.5,96.2,138.1,96.2,137.3z"/>
		<path d="M111.3,136.3c-1.5-1.6-2.3-4.1-2.3-7.4c0-3.4,0.8-5.9,2.3-7.6c1.5-1.7,3.9-2.5,7.2-2.5c1.5,0,2.9,0.2,4.2,0.7
			c1.3,0.5,1.9,1.1,1.9,1.9c0,0.4-0.3,0.9-0.8,1.7c-0.5,0.8-0.9,1.1-1.2,1.1c-0.1,0-0.3-0.1-0.7-0.3c-0.5-0.2-1-0.4-1.5-0.6
			c-0.5-0.1-1.1-0.2-1.8-0.2c-1.5,0-2.5,0.5-3.2,1.4c-0.7,0.9-1,2.3-1,4.3c0,1.9,0.3,3.3,0.9,4.3c0.6,0.9,1.6,1.4,3,1.4
			c0.6,0,1.2-0.1,1.7-0.2c0.5-0.1,0.9-0.3,1.3-0.4c0.3-0.1,0.5-0.2,0.6-0.3c0.4-0.1,0.6-0.2,0.7-0.2c0.2,0,0.5,0.2,0.8,0.5
			c0.3,0.4,0.6,0.8,0.8,1.2c0.2,0.5,0.3,0.8,0.3,1.1c0,0.6-0.4,1.1-1.2,1.5c-0.8,0.4-1.8,0.7-2.8,0.8c-1,0.2-1.8,0.2-2.4,0.2
			C115.1,138.7,112.8,137.9,111.3,136.3z"/>
		<path d="M127.7,132.7v-21c0-0.8,0.7-1.2,2.2-1.2h1c1.5,0,2.2,0.4,2.2,1.2v21.1c0,0.6,0.1,1,0.3,1.2c0.2,0.2,0.5,0.4,1,0.4
			c0.1,0,0.3,0,0.5-0.1c0.2,0,0.4-0.1,0.5-0.1c0.2,0,0.4,0.2,0.6,0.6c0.2,0.4,0.3,0.8,0.4,1.2c0.1,0.4,0.1,0.7,0.1,0.9
			c0,1.2-1.2,1.8-3.6,1.8C129.5,138.7,127.7,136.7,127.7,132.7z"/>
		<path d="M139.9,137.2c-0.9-1-1.3-2.5-1.3-4.5v-12.5c0-0.8,0.7-1.2,2.2-1.2h1c1.5,0,2.2,0.4,2.2,1.2v11.7c0,0.8,0.2,1.3,0.5,1.7
			c0.3,0.4,0.9,0.6,1.7,0.6c0.7,0,1.3-0.2,1.8-0.6c0.5-0.4,0.9-0.9,1.2-1.5v-11.9c0-0.8,0.7-1.2,2.2-1.2h1c1.5,0,2.2,0.4,2.2,1.2
			v11.7c0,1.1,0,2,0.1,2.6c0.1,0.6,0.1,1.2,0.2,2c0.1,0.3,0.1,0.6,0.1,0.8c0,0.4-0.5,0.7-1.5,0.9c-1,0.2-1.9,0.3-2.6,0.3
			c-0.4,0-0.8-0.2-0.9-0.5c-0.2-0.4-0.3-0.7-0.4-1.2c-0.1-0.4-0.1-0.7-0.2-0.9c-0.6,0.8-1.4,1.5-2.3,2c-1,0.5-2,0.8-3.2,0.8
			C142.1,138.7,140.7,138.2,139.9,137.2z"/>
		<path d="M166.6,137.9c-0.9-0.5-1.5-1.2-2-2c-0.2,0.8-0.3,1.3-0.4,1.6c-0.1,0.4-0.3,0.6-0.7,0.8c-0.3,0.1-0.8,0.2-1.5,0.2h-0.4
			c-1.5,0-2.2-0.4-2.2-1.2v-25.6c0-0.8,0.7-1.2,2.2-1.2h1c1.5,0,2.2,0.4,2.2,1.2v8.2c1.1-0.8,2.3-1.1,3.8-1.1c2.5,0,4.4,0.9,5.8,2.7
			c1.4,1.8,2.1,4.2,2.1,7.3c0,2.1-0.3,3.9-0.9,5.4c-0.6,1.5-1.4,2.6-2.5,3.4c-1,0.8-2.2,1.2-3.6,1.2
			C168.4,138.7,167.4,138.4,166.6,137.9z M170.9,128.7c0-3.7-1.1-5.6-3.4-5.6c-0.9,0-1.8,0.2-2.6,0.7v8.3c0.8,1.5,1.9,2.2,3,2.2
			C169.9,134.2,170.9,132.4,170.9,128.7z"/>
	</g>
</g>
</svg>
