<?xml version="1.0" encoding="utf-8"?>
<!-- Generator: Adobe Illustrator 21.1.0, SVG Export Plug-In . SVG Version: 6.00 Build 0)  -->
<svg version="1.1" id="Ebene_1" xmlns="http://www.w3.org/2000/svg" xmlns:xlink="http://www.w3.org/1999/xlink" x="0px" y="0px"
	 viewBox="0 0 100 86.2" style="enable-background:new 0 0 100 86.2;" xml:space="preserve">
<style type="text/css">
	.st0{fill:#FFFFFF;}
	.st1{fill:#F59E24;}
</style>
<title>Logo_NICHTfinal</title>
<g id="Layer_2">
	<g id="Layer_1-2">
		<path class="st0" d="M9.6,75.1c-0.2-1-0.3-2-0.3-3V61c0-0.4-0.4-0.7-1.2-0.7H7.6c-0.8,0-1.2,0.2-1.2,0.7v4.5
			c-0.6-0.4-1.3-0.6-2.1-0.6C1.5,64.9,0,67,0,70.4c0,3.5,1.6,5.5,3.8,5.5c1.1,0,2.2-0.5,2.7-1.5c0.1,0.5,0.2,1.4,0.8,1.4
			S9.6,75.5,9.6,75.1 M6.4,72.2c-0.3,0.7-0.9,1.1-1.7,1.2c-1.1,0-1.7-1.1-1.7-3s0.6-3.1,1.9-3.1c0.5,0,1,0.1,1.4,0.4V72.2z"/>
		<path class="st0" d="M13.6,60.3h-0.6c-0.9,0-1.2,0.2-1.2,0.7v1.7c0,0.4,0.4,0.7,1.2,0.7h0.6c0.9,0,1.2-0.2,1.2-0.7V61
			C14.9,60.6,14.5,60.3,13.6,60.3"/>
		<path class="st0" d="M13.6,65h-0.6c-0.9,0-1.2,0.2-1.2,0.7v9.4c0,0.4,0.4,0.7,1.2,0.7h0.6c0.9,0,1.2-0.2,1.2-0.7v-9.4
			C14.9,65.2,14.5,65,13.6,65"/>
		<path class="st0" d="M23.2,64.9c-1.2,0-2.3,0.6-3,1.6c-0.1-0.5-0.2-1.3-0.8-1.3s-2.3,0.2-2.3,0.7c0.2,0.9,0.2,1.9,0.2,2.9v6.4
			c0,0.4,0.4,0.7,1.2,0.7h0.6c0.9,0,1.2-0.2,1.2-0.7v-6.5c0.3-0.7,0.9-1.1,1.6-1.2c0.9,0,1.2,0.5,1.2,1.3v6.4c0,0.4,0.4,0.7,1.2,0.7
			H25c0.9,0,1.2-0.2,1.2-0.7v-6.9C26.2,65.9,25.2,64.9,23.2,64.9"/>
		<path class="st0" d="M34.5,64.9c-1.2,0-2.3,0.6-3,1.6c-0.1-0.5-0.2-1.3-0.8-1.3s-2.3,0.2-2.3,0.7c0.2,0.9,0.3,1.9,0.3,2.9v6.4
			c0,0.4,0.4,0.7,1.2,0.7h0.6c0.9,0,1.2-0.2,1.2-0.7v-6.5c0.3-0.7,0.9-1.1,1.6-1.2c0.9,0,1.2,0.5,1.2,1.3v6.4c0,0.4,0.4,0.7,1.2,0.7
			h0.6c0.9,0,1.2-0.2,1.2-0.7v-6.9C37.5,65.9,36.6,64.9,34.5,64.9"/>
		<path class="st0" d="M48.9,70.1c0-2.8-1.2-5.3-4.4-5.3c-2.9,0-4.9,1.6-4.9,5.6c0,3.3,1.6,5.4,5.3,5.4c1.1,0,3.7-0.4,3.7-1.5
			c0-0.4-0.6-1.6-1-1.6c-0.8,0.3-1.6,0.6-2.5,0.6c-1.1,0.2-2.2-0.6-2.3-1.7c0-0.1,0-0.3,0-0.4h5.2C48.4,71.1,48.8,70.6,48.9,70.1
			 M46,69.3h-3.3c0.3-1.6,1-2.1,1.8-2.1C45.5,67.3,46,68.1,46,69.3"/>
		<path class="st0" d="M56,64.9c-1,0-1.8,0.6-2.2,1.6c-0.1-0.5-0.2-1.3-0.8-1.3s-2.3,0.2-2.3,0.7c0.2,0.9,0.3,1.9,0.3,2.9v6.4
			c0,0.4,0.4,0.7,1.2,0.7h0.6c0.8,0,1.2-0.2,1.2-0.7v-6.5c0.3-0.6,1-1,1.6-1c0.4,0,0.7,0.2,1,0.2s0.6-1.3,0.6-1.7
			c0.1-0.5-0.3-1.1-0.9-1.1C56.2,64.8,56.1,64.9,56,64.9"/>
		<path class="st0" d="M68.1,64.9c-3.6,0-5.2,1.9-5.2,5.6s1.6,5.4,5.1,5.4c0.7,0,3.6-0.3,3.6-1.4c0-0.4-0.6-1.6-1.1-1.6
			c-0.1,0-0.3,0.1-0.4,0.1c-0.6,0.3-1.3,0.5-2,0.5c-1.6,0-2.2-1-2.2-3.1s0.7-3.1,2.3-3.1c0.6,0,1.2,0.2,1.8,0.4
			c0.1,0.1,0.2,0.1,0.4,0.1c0.3,0,1.1-1.2,1.1-1.6C71.5,65.3,69.5,64.9,68.1,64.9"/>
		<path class="st0" d="M75,60.3h-0.6c-0.8,0-1.2,0.2-1.2,0.7v11.6c0,2.3,1.1,3.3,3,3.3c0.6,0,2-0.1,2-1c0-0.2-0.2-1.5-0.6-1.5
			c-0.1,0-0.4,0.1-0.6,0.1c-0.5,0-0.7-0.3-0.7-0.9V61C76.3,60.6,75.9,60.3,75,60.3"/>
		<path class="st0" d="M86.8,65h-0.6c-0.9,0-1.2,0.2-1.2,0.7v6.5c-0.3,0.7-0.9,1.1-1.6,1.2c-0.9,0-1.2-0.5-1.2-1.3v-6.5
			c0-0.4-0.4-0.7-1.2-0.7h-0.6c-0.9,0-1.2,0.2-1.2,0.7v6.9c0,2.3,1,3.3,3,3.3c1.2,0,2.3-0.6,3-1.5c0.1,0.5,0.2,1.4,0.8,1.4
			c0.5,0,2.3-0.2,2.3-0.7c-0.2-1-0.3-2-0.3-3v-6.4C88,65.2,87.6,65,86.8,65"/>
		<path class="st0" d="M100,70.4c0-3.3-1.6-5.5-4.3-5.5c-0.7,0-1.5,0.2-2.1,0.6V61c0-0.4-0.4-0.7-1.2-0.7h-0.6
			c-0.9,0-1.2,0.2-1.2,0.7v14.1c0,0.4,0.4,0.7,1.2,0.7h0.2c0.7,0,1.1-0.1,1.2-0.5c0.1-0.3,0.1-0.6,0.2-0.9c0.6,1,1.6,1.6,2.7,1.5
			C98.4,75.8,100,73.9,100,70.4 M97,70.4c0,2-0.5,3-1.7,3c-0.7-0.1-1.4-0.5-1.7-1.2v-4.5c0.4-0.3,0.9-0.4,1.4-0.4
			C96.4,67.3,97,68.3,97,70.4"/>
		<path class="st0" d="M70.8,85.1c0.3,0,0.6-0.3,0.6-0.6c0-0.3-0.3-0.6-0.6-0.6c-0.3,0-0.6,0.3-0.6,0.6l0,0
			C70.2,84.8,70.4,85.1,70.8,85.1"/>
		<path class="st0" d="M31.1,85.1c0.3,0,0.6-0.3,0.6-0.6s-0.3-0.6-0.6-0.6c-0.3,0-0.6,0.3-0.6,0.6C30.4,84.8,30.7,85.1,31.1,85.1
			C31.1,85.1,31.1,85.1,31.1,85.1"/>
		<path class="st1" d="M65.4,41.3l0.2-2.1c5.2-0.8,8.7-5.6,8-10.8c-0.1-0.4-0.1-0.8-0.3-1.2l1.1-5.8c2.6-0.2,4.7-2.2,5-4.9
			c0.3-2.5-1.1-4.9-3.5-5.7c-1.1-0.3-2.3-0.3-3.3,0.1c-0.5-2.7-3.1-4.5-5.8-4c-1.4,0.2-2.6,1.1-3.3,2.2c-0.8-0.8-1.9-1.3-3-1.4
			c-2.5-0.1-4.8,1.5-5.4,4c-0.7,2.5,0.4,5.2,2.8,6.4l-1.2,6.1c-3.1,4.2-2.1,10.2,2.1,13.2c0.3,0.2,0.7,0.5,1,0.7l-0.6,2
			c-2.6-0.7-5-2-7.1-3.7l0,0c-0.7-0.6-1.3-1.1-2-1.8c-0.6,0.6-1.3,1.2-2,1.8l0,0c-2.1,1.7-4.5,2.9-7.1,3.7l-0.6-2
			c4.6-2.5,6.3-8.3,3.8-12.9c-1.7-3-4.9-4.9-8.3-4.9c-0.8,0-1.6,0.1-2.3,0.3c-5.1,1.3-8.2,6.4-6.9,11.5c0.9,3.7,4,6.5,7.8,7.1
			l0.2,2.1c-0.5,0-1,0-1.4,0c-5.3,0-8.7-1.9-12.6-3.8c3.3,6.6,7.6,11.3,14.6,11.6l0.5,6.5h9.5L43,47.8c3-1.2,5.5-3.4,7-6.2
			c1.5,2.8,4,5,7,6.2l-2.3,7.9h9.5l0.5-6.5c7-0.3,11.3-5,14.6-11.6C75.2,39.6,71.5,41.7,65.4,41.3"/>
		<path class="st1" d="M80.1,55.7h3.6c6.5-12.4,5.7-27.3-2.1-38.8c-0.2,1.3-0.6,2.5-1.4,3.6C86.5,31.3,86.5,44.8,80.1,55.7"/>
		<path class="st1" d="M19.7,55.7C10,39,15.7,17.6,32.4,7.9c9.5-5.5,21.1-6.2,31.2-2c1.2-0.8,2.5-1.2,3.9-1.2c0.3,0,0.6,0,0.8,0.1
			C62.1,1.3,55-0.3,47.8,0.1C28.2,1.2,12.7,17,11.9,36.5c-0.3,6.7,1.2,13.3,4.3,19.2H19.7z"/>
		<path class="st0" d="M14.3,86l-1.4-2l1.3-1.9c0,0,0.1-0.1,0.1-0.1c0,0,0,0-0.1-0.1h-0.1H14c-0.1,0-0.3,0-0.3,0.1l-1.3,2l0,0v-1.9
			c0-0.1-0.1-0.1-0.2-0.1h-0.1c-0.1,0-0.2,0-0.2,0.1V86c0,0.1,0.1,0.1,0.2,0.1h0.1c0.2,0,0.2,0,0.2-0.1v-1.8l0,0l1.3,1.9
			c0,0,0.1,0.1,0.1,0.1h0.3c0.1,0,0.1,0,0.2,0c0,0,0.1,0,0.1-0.1C14.4,86.1,14.4,86,14.3,86"/>
		<path class="st0" d="M16,86.2c0.4,0,0.7-0.1,1-0.3c0.2-0.2,0.4-0.6,0.3-0.9v-2.9c0-0.1-0.1-0.1-0.2-0.1H17c-0.1,0-0.2,0-0.2,0.1
			V85c0,0.2-0.1,0.4-0.2,0.5c-0.3,0.3-0.8,0.3-1.1,0c-0.2-0.1-0.2-0.3-0.2-0.5v-2.9c0-0.1-0.1-0.1-0.2-0.1h-0.1
			c-0.1,0-0.2,0-0.2,0.1V85c0,0.3,0.1,0.7,0.4,0.9C15.3,86.1,15.6,86.2,16,86.2"/>
		<path class="st0" d="M18.3,86.2h1.6c0,0,0.1,0,0.1,0c0-0.1,0-0.1,0-0.2v-0.1c0,0,0-0.1,0-0.1c0,0-0.1,0-0.1,0h-1.3v-3.7
			c0-0.1-0.1-0.1-0.2-0.1h-0.1c-0.1,0-0.2,0-0.2,0.1V86c0,0,0,0.1,0,0.1C18.2,86.2,18.2,86.2,18.3,86.2"/>
		<path class="st0" d="M20.9,86.2H21c0.1,0,0.2,0,0.2-0.1v-3.6h0.9c0,0,0.1,0,0.1,0c0,0,0-0.1,0-0.1v-0.1c0,0,0-0.1,0-0.1
			c0,0-0.1,0-0.1,0h-2.3c-0.1,0-0.1,0.1-0.1,0.2v0.1c0,0.1,0,0.2,0.1,0.2h0.9V86C20.7,86.1,20.7,86.1,20.9,86.2"/>
		<path class="st0" d="M23.9,86.2c0.4,0,0.7-0.1,1-0.3c0.2-0.2,0.4-0.5,0.4-0.9v-2.9c0-0.1-0.1-0.1-0.2-0.1H25c-0.2,0-0.2,0-0.2,0.1
			V85c0,0.2-0.1,0.4-0.2,0.5c-0.2,0.1-0.4,0.2-0.6,0.2c-0.2,0-0.4-0.1-0.6-0.2c-0.1-0.1-0.2-0.3-0.2-0.5v-2.9c0-0.1-0.1-0.1-0.2-0.1
			h-0.1c-0.2,0-0.2,0-0.2,0.1V85c0,0.3,0.1,0.7,0.4,0.9C23.2,86.1,23.6,86.2,23.9,86.2"/>
		<path class="st0" d="M27.6,84.1L27.6,84.1c0.2-0.1,0.3-0.2,0.4-0.4c0.1-0.2,0.2-0.4,0.1-0.6c0-0.3-0.1-0.6-0.3-0.8
			C27.6,82.1,27.3,82,27,82h-0.9c0,0-0.1,0-0.1,0c0,0,0,0.1,0,0.1V86c0,0.1,0.1,0.1,0.2,0.1h0.1c0.1,0,0.2,0,0.2-0.1v-1.7h0.4
			c0.1,0,0.3,0,0.4,0.1c0.1,0.1,0.2,0.3,0.2,0.5l0.4,1.2c0,0,0,0.1,0.1,0.1h0.1h0.1c0.2,0,0.2,0,0.2-0.1c0,0,0-0.1,0-0.1l-0.4-1.2
			c-0.1-0.2-0.1-0.4-0.2-0.5C27.8,84.2,27.8,84.1,27.6,84.1 M27.7,83.1c0,0.2,0,0.4-0.1,0.5c-0.1,0.1-0.2,0.2-0.4,0.2h-0.6v-1.4h0.6
			c0.2,0,0.3,0.1,0.4,0.2C27.6,82.8,27.7,82.9,27.7,83.1"/>
		<path class="st0" d="M33.9,86.2H34c0.2,0,0.2,0,0.2-0.1v-3.9c0-0.1-0.1-0.1-0.2-0.1h-0.1c-0.2,0-0.2,0-0.2,0.1V86
			C33.7,86.1,33.8,86.1,33.9,86.2"/>
		<path class="st0" d="M35.3,86.2L35.3,86.2c0.2,0,0.3,0,0.3-0.1v-2.7c0-0.1,0-0.3,0-0.4l0,0c0,0.1,0.1,0.3,0.2,0.4l1.4,2.8
			c0.1,0.1,0.1,0.1,0.2,0.1h0.1c0.2,0,0.2,0,0.2-0.1v-3.9c0-0.1-0.1-0.1-0.2-0.1h-0.1c-0.2,0-0.2,0-0.2,0.1v2.6c0,0.1,0,0.3,0,0.4
			l0,0c0-0.1-0.1-0.3-0.2-0.4l-1.4-2.7c0,0-0.1-0.1-0.1-0.1c0,0-0.1,0-0.1,0h-0.1c-0.2,0-0.2,0-0.2,0.1V86
			C35,86.1,35.1,86.1,35.3,86.2"/>
		<path class="st0" d="M39.3,86.2L39.3,86.2c0.2,0,0.3,0,0.3-0.1v-3.6h0.8c0,0,0.1,0,0.1,0c0,0,0-0.1,0-0.1v-0.1c0,0,0-0.1,0-0.1
			c0,0-0.1,0-0.1,0h-2.2c-0.1,0-0.1,0.1-0.1,0.2v0.1c0,0.1,0,0.2,0.1,0.2h0.9V86C39.1,86.1,39.2,86.1,39.3,86.2"/>
		<path class="st0" d="M41.2,86.2h1.7c0,0,0.1,0,0.1,0c0,0,0-0.1,0-0.1v-0.1c0,0,0-0.1,0-0.1c0,0-0.1,0-0.1,0h-1.3v-1.5h1.2
			c0.1,0,0.1-0.1,0.1-0.2V84c0-0.1,0-0.2-0.1-0.2h-1.2v-1.4h1.3c0.1,0,0.1-0.1,0.1-0.2v-0.1c0-0.1,0-0.2-0.1-0.2h-1.7
			c0,0-0.1,0-0.1,0c0,0,0,0.1,0,0.1V86c0,0,0,0.1,0,0.1C41.1,86.2,41.2,86.2,41.2,86.2"/>
		<path class="st0" d="M45.3,84.1L45.3,84.1c0.2-0.1,0.3-0.2,0.4-0.4c0.1-0.2,0.1-0.4,0.1-0.6c0-0.3-0.1-0.6-0.3-0.8
			C45.3,82.1,45,82,44.7,82h-0.9c0,0-0.1,0-0.1,0c0,0,0,0.1,0,0.1V86c0,0.1,0.1,0.1,0.2,0.1H44c0.2,0,0.2,0,0.2-0.1v-1.7h0.4
			c0.1,0,0.3,0,0.4,0.1c0.1,0.1,0.2,0.3,0.2,0.5l0.4,1.2c0,0,0,0.1,0.1,0.1h0.1h0.1c0.2,0,0.2,0,0.2-0.1c0,0,0-0.1,0-0.1l-0.4-1.2
			c-0.1-0.2-0.1-0.4-0.2-0.5C45.5,84.2,45.5,84.1,45.3,84.1 M45.4,83.1c0,0.2,0,0.4-0.2,0.5c-0.1,0.1-0.2,0.2-0.4,0.2h-0.6v-1.4h0.6
			c0.2,0,0.3,0.1,0.4,0.2C45.3,82.8,45.4,82.9,45.4,83.1"/>
		<path class="st0" d="M46.8,86.2L46.8,86.2c0.2,0,0.3,0,0.3-0.1v-2.7c0-0.1,0-0.3,0-0.4l0,0c0,0.1,0.1,0.3,0.2,0.4l1.4,2.8
			c0.1,0.1,0.1,0.1,0.2,0.1H49c0.2,0,0.2,0,0.2-0.1v-3.9c0-0.1-0.1-0.1-0.2-0.1h-0.1c-0.2,0-0.2,0-0.2,0.1v2.6c0,0.1,0,0.3,0,0.4
			l0,0c0-0.1-0.1-0.3-0.2-0.4l-1.4-2.7c0,0-0.1-0.1-0.1-0.1c0,0-0.1,0-0.1,0h-0.1c-0.2,0-0.2,0-0.2,0.1V86
			C46.6,86.1,46.7,86.1,46.8,86.2"/>
		<path class="st0" d="M52.5,86.1C52.5,86,52.5,86,52.5,86.1l-1.1-4c0-0.1-0.1-0.1-0.2-0.1H51c-0.1,0-0.2,0-0.2,0.1L49.6,86v0.1
			c0,0.1,0.1,0.1,0.2,0.1H50c0.1,0,0.2,0,0.2-0.1l0.3-1h1.3l0.3,1c0,0.1,0.1,0.1,0.2,0.1h0.1c0.1,0,0.1,0,0.2,0
			C52.5,86.2,52.5,86.1,52.5,86.1 M51.5,84.7h-1L51,83v-0.2c0,0,0-0.1,0-0.1l0,0l0.1,0.4L51.5,84.7z"/>
		<path class="st0" d="M53.6,86.2L53.6,86.2c0.2,0,0.3,0,0.3-0.1v-3.6h0.8c0,0,0.1,0,0.1,0c0,0,0-0.1,0-0.1v-0.1c0,0,0-0.1,0-0.1
			c0,0-0.1,0-0.1,0h-2.2c-0.1,0-0.1,0.1-0.1,0.2v0.1c0,0.1,0,0.2,0.1,0.2h0.9V86C53.4,86.1,53.4,86.1,53.6,86.2"/>
		<path class="st0" d="M55.6,86.2L55.6,86.2c0.2,0,0.3,0,0.3-0.1v-3.9c0-0.1-0.1-0.1-0.2-0.1h-0.1c-0.2,0-0.2,0-0.2,0.1V86
			C55.4,86.1,55.5,86.1,55.6,86.2"/>
		<path class="st0" d="M59.6,84.1c0-1.4-0.5-2.1-1.5-2.1s-1.5,0.7-1.5,2.1c0,0.6,0.1,1.1,0.4,1.6c0.5,0.6,1.4,0.7,2,0.2
			c0.1-0.1,0.2-0.1,0.2-0.2C59.5,85.2,59.6,84.6,59.6,84.1 M59,84.1c0,1.1-0.3,1.7-0.9,1.7s-0.9-0.6-0.9-1.7c0-0.4,0.1-0.9,0.2-1.3
			c0.1-0.3,0.4-0.4,0.7-0.4C58.7,82.4,59,82.9,59,84.1"/>
		<path class="st0" d="M60.4,86.2L60.4,86.2c0.2,0,0.3,0,0.3-0.1v-2.7c0-0.1,0-0.3,0-0.4l0,0c0,0.1,0.1,0.3,0.2,0.4l1.4,2.8
			c0,0.1,0.1,0.1,0.2,0.1h0.1c0.2,0,0.2,0,0.2-0.1v-3.9c0-0.1-0.1-0.1-0.2-0.1h-0.1c-0.2,0-0.2,0-0.2,0.1v2.6c0,0.1,0,0.3,0,0.4l0,0
			c0-0.1-0.1-0.2-0.2-0.4l-1.4-2.7c0,0-0.1-0.1-0.1-0.1c0,0-0.1,0-0.1,0h-0.1c-0.2,0-0.2,0-0.2,0.1V86
			C60.2,86.1,60.3,86.1,60.4,86.2"/>
		<path class="st0" d="M66.1,86.1C66.1,86,66.1,86,66.1,86.1l-1.1-4c0-0.1-0.1-0.1-0.2-0.1h-0.2c-0.1,0-0.2,0-0.2,0.1L63.3,86
			c0,0,0,0.1,0,0.1c0,0.1,0.1,0.1,0.2,0.1h0.1c0.1,0,0.2,0,0.2-0.1l0.3-1h1.3l0.3,1c0,0.1,0.1,0.1,0.2,0.1h0.1c0.1,0,0.1,0,0.2,0
			C66.1,86.2,66.1,86.1,66.1,86.1 M65.2,84.7h-1l0.4-1.7v-0.2c0,0,0-0.1,0-0.1l0,0c0,0.2,0,0.3,0.1,0.4L65.2,84.7z"/>
		<path class="st0" d="M66.7,86.2h1.6c0,0,0.1,0,0.1,0c0,0,0-0.1,0-0.1v-0.1c0,0,0-0.1,0-0.1c0,0,0,0-0.1,0h-1.2v-3.7
			c0-0.1-0.1-0.1-0.2-0.1h-0.1c-0.2,0-0.2,0-0.2,0.1V86c0,0,0,0.1,0,0.1C66.6,86.2,66.6,86.2,66.7,86.2"/>
		<path class="st0" d="M76.1,86l-1.4-2l1.3-1.8c0,0,0-0.1,0-0.1c0,0,0,0,0-0.1h-0.2h-0.1c-0.1,0-0.2,0-0.3,0.1L74.2,84l0,0v-1.9
			c0-0.1-0.1-0.1-0.2-0.1h-0.1c-0.2,0-0.2,0-0.2,0.1V86c0,0.1,0.1,0.1,0.2,0.1H74c0.2,0,0.2,0,0.2-0.1v-1.8l0,0l1.3,1.9
			c0,0,0.1,0.1,0.1,0.1H76c0.1,0,0.1,0,0.2,0c0,0,0.1,0,0.1-0.1C76.2,86.1,76.2,86,76.1,86"/>
		<path class="st0" d="M77.5,81.5c0.2,0,0.2,0,0.2-0.1v-0.3c0-0.1-0.1-0.1-0.2-0.1s-0.2,0-0.2,0.1v0.3
			C77.2,81.4,77.3,81.5,77.5,81.5"/>
		<path class="st0" d="M78.2,81.5c0.2,0,0.2,0,0.2-0.1v-0.3c0-0.1-0.1-0.1-0.2-0.1s-0.2,0-0.2,0.1v0.3C78,81.4,78.1,81.5,78.2,81.5"
			/>
		<path class="st0" d="M77.8,86.2c0.4,0,0.7-0.1,1-0.3c0.2-0.2,0.4-0.5,0.3-0.9v-2.9c0-0.1-0.1-0.1-0.2-0.1h-0.1
			c-0.2,0-0.2,0-0.2,0.1V85c0,0.2-0.1,0.4-0.2,0.5c-0.3,0.3-0.8,0.3-1.2,0c-0.1-0.1-0.2-0.3-0.2-0.5v-2.9c0-0.1-0.1-0.1-0.2-0.1
			h-0.1c-0.2,0-0.2,0-0.2,0.1V85c0,0.3,0.1,0.7,0.3,0.9C77.2,86.1,77.5,86.2,77.8,86.2"/>
		<path class="st0" d="M81.3,86.2c0.1,0,0.2,0,0.4,0l0.3-0.1c0,0,0.1-0.1,0.1-0.1c0,0,0-0.1,0-0.1c0-0.1,0-0.1,0-0.2
			c0-0.1-0.1-0.1-0.1-0.1l0,0c-0.2,0.1-0.4,0.2-0.6,0.2c-0.3,0-0.6-0.1-0.8-0.4c-0.2-0.4-0.3-0.8-0.2-1.3c0-0.4,0.1-0.9,0.3-1.3
			c0.2-0.3,0.4-0.4,0.8-0.4c0.2,0,0.4,0,0.5,0.1c0.1,0,0.1,0,0.1-0.1c0-0.1,0-0.2,0-0.2c0,0,0-0.1,0-0.1c0,0,0,0-0.1-0.1
			c-0.1,0-0.2-0.1-0.3-0.1c-0.1,0-0.2,0-0.3,0c-0.5,0-0.9,0.2-1.2,0.5c-0.3,0.5-0.4,1-0.4,1.6c0,0.6,0.1,1.1,0.4,1.6
			C80.5,86.1,80.9,86.3,81.3,86.2"/>
		<path class="st0" d="M82.8,86.2L82.8,86.2c0.2,0,0.3,0,0.3-0.1v-1.8h1.6V86c0,0.1,0.1,0.1,0.2,0.1H85c0.2,0,0.2,0,0.2-0.1v-3.9
			c0-0.1-0.1-0.1-0.2-0.1h-0.1c-0.2,0-0.2,0-0.2,0.1v1.7h-1.6v-1.7c0-0.1-0.1-0.1-0.2-0.1h-0.1c-0.2,0-0.2,0-0.2,0.1V86
			C82.5,86.1,82.6,86.1,82.8,86.2"/>
		<path class="st0" d="M86.2,86.2h1.7c0,0,0.1,0,0.1,0c0,0,0-0.1,0-0.2v-0.1c0,0,0-0.1,0-0.1c0,0-0.1,0-0.1,0h-1.4v-1.5h1.2
			c0.1,0,0.1-0.1,0.1-0.2V84c0-0.1,0-0.2-0.1-0.2h-1.2v-1.4h1.3c0.1,0,0.1-0.1,0.1-0.2v-0.1c0-0.1,0-0.2-0.1-0.2h-1.7
			c0,0-0.1,0-0.1,0c0,0,0,0.1,0,0.1V86c0,0,0,0.1,0,0.1C86.1,86.2,86.1,86.2,86.2,86.2"/>
	</g>
</g>
</svg>
