<svg xmlns="http://www.w3.org/2000/svg" viewBox="0 0 100 86.2"><defs><style>.cls-1{fill:#f59e24;}</style></defs><title>Logo_NICHTfinal</title><g id="Layer_2" data-name="Layer 2"><g id="Layer_1-2" data-name="Layer 1"><path d="M9.63,75.06a17.22,17.22,0,0,1-.25-3V61c0-.42-.36-.65-1.22-.65H7.59c-.85,0-1.22.23-1.22.65v4.52a3.58,3.58,0,0,0-2.08-.63C1.55,64.88,0,67,0,70.36c0,3.54,1.61,5.49,3.81,5.49a3,3,0,0,0,2.72-1.52c.13.52.17,1.38.82,1.38s2.28-.16,2.28-.65M6.37,72.19a2,2,0,0,1-1.67,1.2c-1.12,0-1.65-1.06-1.65-3s.61-3.1,1.9-3.1a2.83,2.83,0,0,1,1.42.39Z"/><path d="M13.64,60.34h-.57c-.86,0-1.22.23-1.22.65v1.65c0,.43.36.65,1.22.65h.57c.85,0,1.22-.22,1.22-.65V61c0-.42-.37-.65-1.22-.65"/><path d="M13.64,65h-.57c-.86,0-1.22.23-1.22.65v9.43c0,.43.36.65,1.22.65h.57c.85,0,1.22-.22,1.22-.65V65.65c0-.42-.37-.65-1.22-.65"/><path d="M23.18,64.88a3.94,3.94,0,0,0-3,1.55c-.12-.51-.16-1.32-.81-1.32s-2.28.16-2.28.65a16.6,16.6,0,0,1,.24,2.87v6.45c0,.43.37.65,1.22.65h.57c.86,0,1.22-.22,1.22-.65V68.54a2,2,0,0,1,1.63-1.18c.9,0,1.22.47,1.22,1.27v6.45c0,.43.37.65,1.22.65H25c.86,0,1.23-.22,1.23-.65v-6.9c0-2.26-1-3.3-3-3.3"/><path d="M34.52,64.88a3.94,3.94,0,0,0-3,1.55c-.12-.51-.16-1.32-.82-1.32s-2.28.16-2.28.65a16,16,0,0,1,.25,2.87v6.45c0,.43.36.65,1.22.65h.57c.85,0,1.22-.22,1.22-.65V68.54a2,2,0,0,1,1.63-1.18c.89,0,1.22.47,1.22,1.27v6.45c0,.43.37.65,1.22.65h.57c.86,0,1.22-.22,1.22-.65v-6.9c0-2.26-.95-3.3-3-3.3"/><path d="M48.91,70.13c0-2.83-1.2-5.25-4.4-5.25-2.91,0-4.94,1.55-4.94,5.56,0,3.28,1.63,5.41,5.31,5.41,1.14,0,3.66-.45,3.66-1.46,0-.41-.61-1.55-1-1.55a8.11,8.11,0,0,1-2.47.63,2.05,2.05,0,0,1-2.34-2.14h5.19a2,2,0,0,0,1-1.2M46,69.32h-3.3c.25-1.57,1-2.06,1.83-2.06,1,0,1.47.88,1.47,2.06"/><path d="M56,64.88a2.46,2.46,0,0,0-2.21,1.55c-.13-.51-.17-1.32-.82-1.32s-2.28.16-2.28.65A16,16,0,0,1,51,68.63v6.45c0,.43.36.65,1.22.65h.57c.85,0,1.22-.22,1.22-.65V68.54a2,2,0,0,1,1.63-1c.4,0,.67.16.95.16s.63-1.32.63-1.71A1,1,0,0,0,56,64.88"/><path d="M68.1,64.88c-3.64,0-5.23,1.93-5.23,5.56s1.65,5.41,5.13,5.41c.68,0,3.57-.28,3.57-1.42,0-.41-.62-1.55-1.06-1.55a1.51,1.51,0,0,0-.37.12,4.36,4.36,0,0,1-2,.47c-1.55,0-2.18-1-2.18-3.11s.67-3.1,2.3-3.1a3.74,3.74,0,0,1,1.77.45,1.06,1.06,0,0,0,.36.14c.35,0,1.08-1.18,1.08-1.56,0-.94-1.93-1.41-3.38-1.41"/><path d="M75,60.34h-.57c-.85,0-1.22.23-1.22.65V72.55c0,2.26,1.06,3.3,3,3.3.64,0,2-.06,2-1,0-.16-.23-1.46-.63-1.46-.12,0-.37.08-.55.08-.53,0-.73-.26-.73-.87V61c0-.42-.37-.65-1.23-.65"/><path d="M86.79,65h-.57c-.86,0-1.22.23-1.22.65v6.54a2,2,0,0,1-1.63,1.18c-.9,0-1.22-.47-1.22-1.26V65.65c0-.42-.37-.65-1.22-.65h-.57c-.86,0-1.22.23-1.22.65v6.9c0,2.26,1,3.3,3,3.3a4,4,0,0,0,3-1.54c.12.54.16,1.4.82,1.4.5,0,2.28-.16,2.28-.65a17.22,17.22,0,0,1-.25-3V65.65c0-.42-.37-.65-1.22-.65"/><path d="M100,70.36c0-3.32-1.55-5.48-4.29-5.48a3.58,3.58,0,0,0-2.08.63V61c0-.42-.37-.65-1.22-.65h-.57c-.86,0-1.22.23-1.22.65V75.08c0,.43.36.65,1.22.65h.24c.65,0,1.06-.08,1.18-.53.08-.28.14-.59.21-.87a3,3,0,0,0,2.72,1.52c2.2,0,3.81-1.95,3.81-5.49m-3,0c0,2-.53,3-1.65,3a2,2,0,0,1-1.67-1.2V67.65a2.83,2.83,0,0,1,1.42-.39c1.29,0,1.9,1.06,1.9,3.1"/><path d="M70.77,85.1a.6.6,0,1,0-.6-.6.6.6,0,0,0,.6.6"/><path d="M31.06,85.1a.6.6,0,1,0-.61-.6.6.6,0,0,0,.61.6"/><path class="cls-1" d="M65.38,41.31l.16-2.08a9.5,9.5,0,0,0,7.7-12l1.14-5.84a5.38,5.38,0,0,0,5-4.85,5.3,5.3,0,0,0-3.54-5.72,4.92,4.92,0,0,0-3.35.15,5,5,0,0,0-9.14-1.79,4.92,4.92,0,0,0-3-1.39,5.3,5.3,0,0,0-5.43,4,5.39,5.39,0,0,0,2.79,6.36l-1.2,6.15a9.48,9.48,0,0,0,3.13,13.9l-.56,2a20.12,20.12,0,0,1-7.11-3.67h0c-.7-.56-1.34-1.14-2-1.75-.62.61-1.27,1.19-2,1.75h0a20.07,20.07,0,0,1-7.1,3.67l-.56-2a9.49,9.49,0,0,0-4.54-17.82,9.73,9.73,0,0,0-2.31.28,9.5,9.5,0,0,0,.86,18.6l.17,2.08c-.49,0-1,0-1.43,0-5.32,0-8.73-1.88-12.58-3.79,3.29,6.58,7.63,11.32,14.63,11.63l.52,6.51h9.53L43,47.8a13.8,13.8,0,0,0,7-6.18,13.82,13.82,0,0,0,7,6.18L54.7,55.7h9.54l.51-6.51c7-.31,11.34-5,14.63-11.63-4.17,2.08-7.85,4.12-14,3.75"/><path class="cls-1" d="M80.12,55.7h3.55a38,38,0,0,0-2.14-38.85,8,8,0,0,1-1.4,3.62,34.82,34.82,0,0,1,0,35.23"/><path class="cls-1" d="M19.73,55.7A35,35,0,0,1,63.63,5.9a7.26,7.26,0,0,1,3.92-1.17,5.9,5.9,0,0,1,.83.06A37.8,37.8,0,0,0,47.81.06,38.19,38.19,0,0,0,11.88,36.54,37.77,37.77,0,0,0,16.19,55.7Z"/><path d="M14.32,86l-1.4-2,1.28-1.86a.22.22,0,0,0,.06-.12s0,0-.06-.06l-.15,0H14c-.15,0-.25,0-.28.08L12.4,84h0V82.1c0-.09-.07-.13-.23-.13h-.08c-.15,0-.22,0-.22.13V86c0,.09.07.13.22.13h.08c.16,0,.23,0,.23-.13V84.15h0l1.31,1.94a.14.14,0,0,0,.1.07h.31a.39.39,0,0,0,.18,0s.06,0,.06-.06a.26.26,0,0,0,0-.1"/><path d="M16,86.2a1.42,1.42,0,0,0,1-.32,1.14,1.14,0,0,0,.34-.88V82.1c0-.08-.07-.13-.22-.13H17c-.15,0-.22,0-.22.13V85a.69.69,0,0,1-.23.53.91.91,0,0,1-1.14,0,.69.69,0,0,1-.23-.53V82.1c0-.08-.07-.13-.22-.13h-.09c-.15,0-.22,0-.22.13V85a1.11,1.11,0,0,0,.35.88,1.41,1.41,0,0,0,1,.32"/><path d="M18.27,86.16h1.61a.11.11,0,0,0,.1,0A.46.46,0,0,0,20,86v-.09a.41.41,0,0,0,0-.14.11.11,0,0,0-.1,0H18.64V82.1c0-.09-.07-.13-.22-.13h-.09c-.15,0-.22,0-.22.13V86a.26.26,0,0,0,0,.14.17.17,0,0,0,.13,0"/><path d="M20.89,86.17H21c.15,0,.22,0,.22-.13v-3.6h.85a.11.11,0,0,0,.09,0,.21.21,0,0,0,0-.13v-.1a.26.26,0,0,0,0-.14.13.13,0,0,0-.09,0H19.81q-.12,0-.12.18v.1q0,.18.12.18h.86V86c0,.09.07.13.22.13"/><path d="M23.91,86.2a1.41,1.41,0,0,0,1-.32,1.14,1.14,0,0,0,.35-.88V82.1c0-.08-.08-.13-.23-.13h-.08c-.16,0-.23,0-.23.13V85a.69.69,0,0,1-.23.53.8.8,0,0,1-.56.2.85.85,0,0,1-.58-.2.68.68,0,0,1-.22-.53V82.1c0-.08-.08-.13-.23-.13H22.8c-.16,0-.23,0-.23.13V85a1.11,1.11,0,0,0,.35.88,1.42,1.42,0,0,0,1,.32"/><path d="M27.64,84.07v0a.94.94,0,0,0,.4-.39,1.19,1.19,0,0,0,.15-.62,1,1,0,0,0-.29-.81A1.33,1.33,0,0,0,27,82h-.89A.21.21,0,0,0,26,82a.2.2,0,0,0,0,.14V86c0,.09.08.13.23.13h.08c.15,0,.23,0,.23-.13V84.32h.37a.58.58,0,0,1,.4.12,1.12,1.12,0,0,1,.24.47l.36,1.17a.14.14,0,0,0,.08.07l.14,0h.1q.24,0,.24-.09a.51.51,0,0,0,0-.09l-.38-1.17a3.37,3.37,0,0,0-.2-.52.53.53,0,0,0-.21-.23m0-.94a.89.89,0,0,1-.15.52.42.42,0,0,1-.36.22h-.61V82.44h.57a.5.5,0,0,1,.41.17.77.77,0,0,1,.14.52"/><path d="M33.89,86.17H34c.15,0,.22,0,.22-.13V82.1c0-.09-.07-.13-.22-.13h-.09c-.15,0-.22,0-.22.13V86c0,.09.07.13.22.13"/><path d="M35.26,86.17h.07c.15,0,.23,0,.23-.13V83.36a1.9,1.9,0,0,0-.05-.4h0a3.77,3.77,0,0,0,.15.38l1.42,2.75a.24.24,0,0,0,.22.09h.12c.16,0,.23,0,.23-.13V82.1c0-.09-.07-.13-.23-.13h-.07c-.15,0-.22,0-.22.13v2.63a1.84,1.84,0,0,0,0,.39h0a2.18,2.18,0,0,0-.15-.37l-1.39-2.67a.2.2,0,0,0-.09-.09.26.26,0,0,0-.14,0h-.14c-.15,0-.23,0-.23.13V86c0,.09.08.13.23.13"/><path d="M39.32,86.17h.08c.15,0,.23,0,.23-.13v-3.6h.84a.11.11,0,0,0,.1,0,.35.35,0,0,0,0-.13v-.1a.46.46,0,0,0,0-.14.13.13,0,0,0-.1,0H38.23c-.08,0-.11.06-.11.18v.1c0,.12,0,.18.11.18h.86V86c0,.09.07.13.23.13"/><path d="M41.21,86.16h1.72a.1.1,0,0,0,.09,0,.26.26,0,0,0,0-.14v-.09a.24.24,0,0,0,0-.14.1.1,0,0,0-.09,0H41.59V84.25h1.2q.12,0,.12-.18V84q0-.18-.12-.18h-1.2V82.44h1.34q.12,0,.12-.18v-.1q0-.18-.12-.18H41.21a.21.21,0,0,0-.12,0,.2.2,0,0,0,0,.14V86a.2.2,0,0,0,0,.14.16.16,0,0,0,.12,0"/><path d="M45.31,84.07v0a1,1,0,0,0,.41-.39,1.29,1.29,0,0,0,.14-.62,1,1,0,0,0-.29-.81A1.33,1.33,0,0,0,44.7,82h-.89a.21.21,0,0,0-.12,0,.26.26,0,0,0,0,.14V86c0,.09.08.13.23.13H44c.16,0,.23,0,.23-.13V84.32h.38a.57.57,0,0,1,.39.12,1.12,1.12,0,0,1,.24.47l.36,1.17a.19.19,0,0,0,.08.07l.14,0h.11c.15,0,.23,0,.23-.09a.51.51,0,0,0,0-.09l-.38-1.17a3.37,3.37,0,0,0-.2-.52.53.53,0,0,0-.21-.23m0-.94a.83.83,0,0,1-.16.52.42.42,0,0,1-.36.22h-.61V82.44h.57a.49.49,0,0,1,.41.17.77.77,0,0,1,.15.52"/><path d="M46.8,86.17h.07c.15,0,.23,0,.23-.13V83.36a1.9,1.9,0,0,0-.05-.4h0a3.77,3.77,0,0,0,.15.38l1.42,2.75a.24.24,0,0,0,.22.09H49c.16,0,.23,0,.23-.13V82.1c0-.09-.07-.13-.23-.13h-.07c-.15,0-.22,0-.22.13v2.63a1.84,1.84,0,0,0,0,.39h0a2.18,2.18,0,0,0-.15-.37l-1.39-2.67a.2.2,0,0,0-.09-.09.26.26,0,0,0-.14,0H46.8c-.15,0-.23,0-.23.13V86c0,.09.08.13.23.13"/><path d="M52.47,86.07a.25.25,0,0,0,0-.08l-1.09-3.91c0-.07-.09-.11-.23-.11H51c-.14,0-.22,0-.24.11L49.63,86l0,.08c0,.07.08.1.23.1h.09c.13,0,.2,0,.22-.09l.25-1h1.28l.26,1q0,.09.21.09h.1a.4.4,0,0,0,.17,0,.08.08,0,0,0,0-.07m-.92-1.43h-1L51,83l0-.23a.35.35,0,0,1,0-.13h0l.06.36Z"/><path d="M53.59,86.17h.09c.15,0,.22,0,.22-.13v-3.6h.85s.08,0,.09,0a.21.21,0,0,0,0-.13v-.1a.26.26,0,0,0,0-.14.1.1,0,0,0-.09,0H52.51q-.12,0-.12.18v.1q0,.18.12.18h.86V86c0,.09.07.13.22.13"/><path d="M55.61,86.17h.08c.15,0,.23,0,.23-.13V82.1c0-.09-.08-.13-.23-.13h-.08c-.16,0-.23,0-.23.13V86c0,.09.07.13.23.13"/><path d="M59.59,84.06c0-1.41-.5-2.11-1.5-2.11s-1.49.7-1.49,2.11a2.75,2.75,0,0,0,.38,1.6,1.42,1.42,0,0,0,2.23,0,2.75,2.75,0,0,0,.38-1.6m-.55,0c0,1.12-.31,1.68-.94,1.68s-.94-.56-.94-1.68a2.69,2.69,0,0,1,.23-1.26.76.76,0,0,1,.71-.4c.63,0,.94.55.94,1.66"/><path d="M60.43,86.17h.07c.15,0,.22,0,.22-.13V83.36a1.87,1.87,0,0,0,0-.4h0a2.31,2.31,0,0,0,.15.38l1.42,2.75c0,.06.11.09.22.09h.12c.15,0,.23,0,.23-.13V82.1c0-.09-.08-.13-.23-.13h-.07c-.15,0-.23,0-.23.13v2.63a1.89,1.89,0,0,0,0,.39h0a3.52,3.52,0,0,0-.15-.37L60.8,82.09a.2.2,0,0,0-.09-.09.26.26,0,0,0-.14,0h-.14c-.15,0-.23,0-.23.13V86c0,.09.08.13.23.13"/><path d="M66.1,86.07a.31.31,0,0,0,0-.08L65,82.08c0-.07-.09-.11-.24-.11h-.19c-.13,0-.21,0-.24.11L63.25,86a.54.54,0,0,1,0,.08c0,.07.08.1.22.1h.1q.19,0,.21-.09l.25-1h1.29l.25,1c0,.06.09.09.22.09h.1a.32.32,0,0,0,.16,0,.07.07,0,0,0,.06-.07m-.92-1.43h-1L64.59,83l0-.23a.63.63,0,0,1,0-.13h0q0,.28.06.36Z"/><path d="M66.69,86.16H68.3s.08,0,.09,0a.26.26,0,0,0,0-.14v-.09a.24.24,0,0,0,0-.14s0,0-.09,0H67.06V82.1c0-.09-.07-.13-.23-.13h-.08c-.15,0-.23,0-.23.13V86a.26.26,0,0,0,0,.14.17.17,0,0,0,.13,0"/><path d="M76.14,86l-1.4-2L76,82.17a.28.28,0,0,0,0-.12s0,0,0-.06l-.16,0h-.1a.36.36,0,0,0-.28.08L74.22,84h0V82.1c0-.09-.08-.13-.24-.13H73.9c-.15,0-.23,0-.23.13V86c0,.09.08.13.23.13H74c.16,0,.24,0,.24-.13V84.15h0l1.31,1.94a.17.17,0,0,0,.1.07h.31a.47.47,0,0,0,.19,0,.06.06,0,0,0,.05-.06.16.16,0,0,0,0-.1"/><path d="M77.47,81.48c.16,0,.24,0,.24-.13v-.3c0-.09-.08-.13-.23-.13s-.24,0-.24.13v.3c0,.09.08.13.23.13"/><path d="M78.22,81.48c.16,0,.24,0,.24-.13v-.3c0-.09-.07-.13-.23-.13s-.23,0-.23.13v.3c0,.09.07.13.22.13"/><path d="M77.85,86.2a1.41,1.41,0,0,0,1-.32,1.14,1.14,0,0,0,.35-.88V82.1c0-.08-.08-.13-.23-.13h-.08c-.15,0-.23,0-.23.13V85a.68.68,0,0,1-.22.53.93.93,0,0,1-1.15,0,.68.68,0,0,1-.22-.53V82.1c0-.08-.08-.13-.23-.13h-.08c-.15,0-.23,0-.23.13V85a1.14,1.14,0,0,0,.35.88,1.42,1.42,0,0,0,1,.32"/><path d="M81.31,86.2a2.09,2.09,0,0,0,.36,0l.28-.09a.35.35,0,0,0,.11-.09.2.2,0,0,0,0-.11.53.53,0,0,0,0-.2c0-.07-.07-.1-.12-.1h0a1.09,1.09,0,0,1-.56.15.81.81,0,0,1-.76-.41,2.53,2.53,0,0,1-.24-1.25,2.43,2.43,0,0,1,.25-1.26.82.82,0,0,1,.75-.4,1.06,1.06,0,0,1,.52.13c.06,0,.11,0,.14-.09a.68.68,0,0,0,0-.23.25.25,0,0,0,0-.1.28.28,0,0,0-.08-.06,1.58,1.58,0,0,0-.28-.08,1.84,1.84,0,0,0-.33,0,1.36,1.36,0,0,0-1.17.52,2.68,2.68,0,0,0-.38,1.6,2.75,2.75,0,0,0,.37,1.61,1.39,1.39,0,0,0,1.18.52"/><path d="M82.78,86.17h.08c.15,0,.23,0,.23-.13v-1.8h1.56V86c0,.09.08.13.23.13H85c.16,0,.23,0,.23-.13V82.1c0-.09-.07-.13-.23-.13h-.08c-.15,0-.23,0-.23.13v1.69H83.09V82.1c0-.09-.08-.13-.23-.13h-.08c-.16,0-.23,0-.23.13V86c0,.09.07.13.23.13"/><path d="M86.18,86.16h1.71a.1.1,0,0,0,.09,0A.26.26,0,0,0,88,86v-.09a.24.24,0,0,0,0-.14.1.1,0,0,0-.09,0H86.55V84.25h1.21c.07,0,.11-.06.11-.18V84c0-.12,0-.18-.11-.18H86.55V82.44h1.34q.12,0,.12-.18v-.1q0-.18-.12-.18H86.18a.22.22,0,0,0-.13,0,.26.26,0,0,0,0,.14V86a.26.26,0,0,0,0,.14.17.17,0,0,0,.13,0"/></g></g></svg>